<mxfile host="app.diagrams.net" modified="2024-05-24T16:30:54.383Z" agent="Mozilla/5.0 (Windows NT 10.0; Win64; x64) AppleWebKit/537.36 (KHTML, like Gecko) Chrome/125.0.0.0 Safari/537.36 Edg/125.0.0.0" etag="lF8jFk6tiE9Z60Gf0Os6" version="24.4.8" type="github">
  <diagram name="Página-1" id="fFwpa4p24ZvMb6UPsjLj">
    <mxGraphModel dx="1342" dy="439" grid="0" gridSize="10" guides="1" tooltips="1" connect="1" arrows="1" fold="1" page="0" pageScale="1" pageWidth="827" pageHeight="1169" math="0" shadow="0">
      <root>
        <mxCell id="0" />
        <mxCell id="1" parent="0" />
        <mxCell id="TqZeZgLtAaNlRR_1fSZo-2" value="Table: Aluno&amp;nbsp;&lt;div&gt;Nome&amp;nbsp;&lt;/div&gt;&lt;div&gt;Idade&amp;nbsp;&lt;/div&gt;&lt;div&gt;CPF&amp;nbsp;&lt;/div&gt;&lt;div&gt;Sexo&amp;nbsp;&lt;/div&gt;" style="shape=process;whiteSpace=wrap;html=1;backgroundOutline=1;" vertex="1" parent="1">
          <mxGeometry x="-135" y="379" width="136" height="84" as="geometry" />
        </mxCell>
        <mxCell id="TqZeZgLtAaNlRR_1fSZo-3" value="Table: Curso&lt;div&gt;Codg.&lt;/div&gt;&lt;div&gt;Turma&amp;nbsp;&lt;/div&gt;&lt;div&gt;Discplina&lt;span style=&quot;background-color: initial;&quot;&gt;&amp;nbsp;&lt;/span&gt;&lt;/div&gt;&lt;div&gt;&lt;span style=&quot;background-color: initial;&quot;&gt;Aluno&lt;/span&gt;&lt;/div&gt;&lt;div&gt;&lt;div&gt;&lt;br&gt;&lt;/div&gt;&lt;/div&gt;" style="shape=process;whiteSpace=wrap;html=1;backgroundOutline=1;" vertex="1" parent="1">
          <mxGeometry x="18" y="532" width="162" height="89" as="geometry" />
        </mxCell>
        <mxCell id="TqZeZgLtAaNlRR_1fSZo-4" value="Table: Disciplna&lt;div&gt;Prof&lt;/div&gt;&lt;div&gt;Hórario&amp;nbsp;&lt;/div&gt;&lt;div&gt;Carga Horária&lt;/div&gt;" style="shape=process;whiteSpace=wrap;html=1;backgroundOutline=1;" vertex="1" parent="1">
          <mxGeometry x="187" y="379" width="173" height="84" as="geometry" />
        </mxCell>
        <mxCell id="TqZeZgLtAaNlRR_1fSZo-5" value="Table: Prof&amp;nbsp;&lt;div&gt;Turma&amp;nbsp;&lt;/div&gt;&lt;div&gt;Disciplina&lt;/div&gt;" style="shape=process;whiteSpace=wrap;html=1;backgroundOutline=1;" vertex="1" parent="1">
          <mxGeometry x="379" y="527" width="161" height="94" as="geometry" />
        </mxCell>
        <mxCell id="TqZeZgLtAaNlRR_1fSZo-6" value="" style="shape=stencil(lVfLbhsxDPwaXwmJ1POcpv8RIE5t1I0Dx339fbldyFlRu2PktpY5EkkNh9ROHt4PT2/7Hbv36+X8ff/7+Hw97OTLjvn4ethfjlf92snjTh5ezpf9t8v55+vz/PvtabKcvn6cf007/JlxQjFNIHZ/5wVH0f9f+Dqbn46vC/NCrnTmgXzcNvdCjjv7QjkA+0Kh398H4rQN0PND6AAaQM3bAPHk+xPUpYAAmVLtAJLI121ACOSkz5EmWbYB0ZG4DjCtMACoA7kHJJjWxNYlXYGATKEPOhViwIvMFPu0ZiEGac258ewGyFQdYJ7G0AOKpwq4VzRLhnuRIgJUSj2XSqEIYqjBBl2ZBLC1Fir9CTWSAGrUautBARVQQwHFABKlAirOOXI9+2qGEjAd0edVw7oThPR01RUHLkL3S8UCEuCGemzzWqkil1L7ewkARa0AN5yQQV71nniIAWYpUPY2rQmzLwwXV5BLgaRaALyHQKlvDpoGRgAN2rgUcQXFVsILgMP3YMkXqCCXMmUZAChLWvPVuuQRoBIPgIzYemPOIq0BV1wdLo5xxdWBSw4JU23KuAAUpDNlpYAC6CgK8APgzsVxD1hI1RY3ZDwC12hkC4johM8CtKVYcQ1tgtpqWmJ0xrcmsw6QVsKLpoV0JlfypssFOJ5kFaZevouOJ4CuqVo1zhHGkEIbRm4A1xK9PgBVy40U24SzDhBbo1EJDAoi5FaRNwBDJQt+mPpUBUAMouLac0lK65Pro26xFyeOMtBK9m2KvI260ti1PgtE21G8yi2Sbysz3sMkqZD2++c2yK6au2HyhjKprIzGHHU3Z8dDpgQoNIxJfMd3M6162BOcVUdPDG5KQ+07iKMCfc9szAOaCdub7sMczf7ejs0O5p3H3ZGqs51BHOxkYovEwU75yefvXXP9+HhpvxxPp/mhvvzfvsx1aX7Vy+M/);lineShape=1;strokeColor=default;" vertex="1" parent="1">
          <mxGeometry x="336.5635640098569" y="457.5548536765649" width="67.60283371261721" height="73.81227523210191" as="geometry" />
        </mxCell>
        <mxCell id="TqZeZgLtAaNlRR_1fSZo-7" value="" style="shape=stencil(lVjLbhsxDPwaXwlJlEjpnKb/ESBOY9SNAyd9/X25NXa9pO0Jclt7hyuRHA4pbfju7fnhdbsp6e39ePi+/b17fH/e8JdNKbuX5+1x925PG77f8N3T4bj9djz8fHk8/X59mJDT04/Dr+kLf052Y5Dkyaqkv6d/CrXy/4+vJ/x+97LGNyrV4ZVyAvgU8Rkv0CuN7g06CVhBB/HwHjTKAgyYpDkDziRgS9KpizdQSg0YVKp+hZppoBUS1eINhBj40Oy1D2tLJAoMCiW/Qquk/bZBVereh9apDmDApH5LYmuCxPGg7jMtRi6wJV5ishj0OW7XDQqJp4ZmaiCsZVBhb1AhNYxqGlZQasAHK6/A1m65r7cNjP3dJ64zLKDcSLwPXSA1rCBVvYFlBhiMWKGDKTEoacreZRORBsrHFMATyUQqg+9XKiPiUdKYao94VJ1l1p9FkVKCzM6kHBfoIMeJhkR8BQlIkUOjQwdstxLxBSQgRa0YCilnGh++L9RBwhLpBb4AfJ6jsSJQB/G3GisR30A8mUr+DL7O6r/eT0b4K/6C+Ldr8QT8sd16gk75gvgaCqzPK97A5xzxAxZku+B/RcIeBWiqFxCfQt3z/6OCtEaU4wKoYDKVFPECEpzmrrJWLFgw+SIBKECLd6sEKxSI3CIeDSxppvuKcKixfhZvCQ7xZ2IQz0Yj+Jugovd5lFk6mMJZJee5wS0GdU7JrabKfkfWtpHEWdsefgUbDBS4bBwNRalLH7w1eoQ2qQWSzvp2YKkMSqgsOTZWEWygsXHYCDjQzJjm18uQiTtlbZHZNglXIF3VTgdei2wSRqXfeJ7fllHcUonEWuO8VSvMtOR4/qgJyu8UdR9WbrDcNMWpdJrZgF6oxA5rJdvQSHdxnMgC2WoFWaJmk4KwjhIPjg0GyRSoeY3BknFuqWc8o/1oPBosInsLLz3g0ZBsHSAwG7c0w0v0N6H4WK1Hfwtg6dSy4/fROcXwGvGK8cPjM9SWVYs/G1SUgItjSoaKfZ45zjchBSXgszcnH+Lt4XxN87Tb70+3POv38VrH/jpdCfH9Pw==);lineShape=1;strokeColor=default;" vertex="1" parent="1">
          <mxGeometry x="138.22211869617604" y="451.5767860039259" width="73.19842672061463" height="90.47207307126837" as="geometry" />
        </mxCell>
        <mxCell id="TqZeZgLtAaNlRR_1fSZo-8" value="" style="shape=stencil(lVjZUhtBDPwav6qk0ZzPJPkPqjDBFYIpQ66/jyau2exo7QbezDK9q6PVkmanNy8Pt8/7XeCX19Px2/7X4e71YaefdiEcnh72p8Or/drp553e3B9P+6+n44+nu/Pfz7f9ZP/1/fizv+H3GdcaJe6owH/OTyQSx39PvpwBj4enNaCQtgkQhJQBIFHMM6BQyQCgVGQCqD1pACDU4gxolAUA2JsUI1W9DqiVapoBjUoCgEx1NilFCiBKNZLoDKj4CzzSNAA5kgIfSqQ0O53NB5DpXElnp4uOMFwGBJIwAzJMXCrEDlCoIYCSzj6USrEAAFMqHsCAGrEM5qx8SCCsxhx1PkTKAQCYdE5cMf4CamgmnivOEhcrAIQRkwVgUQKJC21U8AqAohQsr3XDJeBDiBRnepdAAWTaRKU5QIIAMR9mkzo1gMxIpjZn2koKccmEsc7kq+YDyIOop0avclBxEohnp01HUKaFqTofKiwg08WZGS0Mcl0WDV8+Jv8MDEqb97dh4WWqUpxrQdh0DRCJhyguH0jjFVfOO95Zd6mgOplkZpE1F4XvdypsCQiAdYt3K0pUkAAe4V7OC2xtTGGjdwXIl+mj03iTO5BgHtauylJR0VBI/nwA9ph37O0R+P7G3l9BQuRblBU94kMY1q7yxcB+O+/eXygiJR3WLnzjEYEr/lbHT4V8k5HNVb0I8Fe8v3a+YT5kfx4Ndzya6XI+QtHl4d1KsAJoZVYvM/9rg1PRth7zmEneWe9hSN41+x0/G5wOeDTq1USE5kb2jdjqK0M+yKatCoinUNzUOxoaP3pevf70uRbYnzx/3qjf4uvR4o/0sHm+dT1E9bIhtI1/SIBEfMu2SSihjOmGQnjhsjmlOB9MU1COszfJprkERMtmLacSuUAfjBZ+XoxjXLs2LwY388oY/a9OpHOU+v6EhLf54SxlqHQ2VbtNOWFpt7ldsjcpAi7FzbCSMblt94hublc4L/btxm0GaYTh6v7k8pApv7GhubW0wIbZo775AqKGbZk8S4ZxqaG1tPqaNi6hZcUqOM71YJkWNCW3kaYFIHDKqTquG1YXEA3koe8Bs9Pa4FxaN8u72qCJLiCaX4eUIZdsMHZsNXGu6OZIRxAXAA8jLwMsJnPiTNqQkLXsr2kq/kD1F0cMlwlbZtz0yHBNtvMq/jy6Kmu+ezJUGDufXYAo4PN11osAh/e25QTc5vr5WeYTvHdYLXtLq4KFtv3AksF3OtD7NSJ1862w7+T4C05Re7/GMfrghevbAPvx/373/vD4eL4eXv/f3wfbo/Ndsn7+Cw==);lineShape=1;strokeColor=default;" vertex="1" parent="1">
          <mxGeometry x="174.563627142242" y="575.3524787312897" width="212.09462057434007" height="22.755175674873044" as="geometry" />
        </mxCell>
        <mxCell id="TqZeZgLtAaNlRR_1fSZo-9" value="" style="shape=stencil(lVbLctswDPwaXTEE+ALPafIfmYlTa+LaGcdJm78PWA0ZE5bQ6U2idkUACyw5+bu3/ePrbiL3djmfXna/56fLfvI/JqL5uN+d54s8Tf5+8nfPp/Pu5/n0fnxa3l8fK7I+/Tp91D/8WXgesFQSuc9lgR3k/HflYcEf5uMVHgu4NBBSgBC3CT5BHncIGdhtE6IHxoHgEULZJuQCMY8EyGkbzwRxTAHNDDgBhgHvANnAFyhR43EbXzxEVvGQN/AJUlL5BjLwDKwkg2BIXG7iRwcumASmkWArIBEFlXEGMiSQlN1IqDW1QiLgMQciQKOoIhoqggdntClH8EnvkIyyMgKPbSo6W30kfe2UDmzukKWIbiRECEbn5QRxHDVEyEZZZQcVEreFdTw3M+nDD9lSAXVjkDk6HKCMGbv2g3W8FJAV3hJZ2iigwlvxlwiZVPzRsC4ZBBqtRbrKiF8mTf2fm1muu7Xr+XWFJSIrg9umS/akJShqlguQZS+rBMMtUrlpogzeyDpSc59ueL71yfoZFaH4saxSN0O36j4jQbKyGk/8rYw5VOkNHerkqh1KW1knkG7tK/HXhdB+VI3fcgvApPFo6BZ0rxb74O/22fHRjAe1Y9eD1BDNtSOm413rxA28Gh3u07qBV4rJERGNcxnb144nM57/var9Gy8P3/fC5/lwWK6V19/1PVKWljuov/8C);lineShape=1;strokeColor=default;" vertex="1" parent="1">
          <mxGeometry x="171.09384149345897" y="578.2005204353411" width="16.34596748841068" height="16.699424469364658" as="geometry" />
        </mxCell>
        <mxCell id="TqZeZgLtAaNlRR_1fSZo-10" value="" style="shape=stencil(lVbLctswDPwaXTEkwQd4TtL/yEycWlPHzjhuHn9fqBo5AlJtJzdZxgrcxQLEwDcv+/vn3ZDCy+V8+rV7Gx8u+4Fvh5TG4353Hi/6NPDdwDePp/Pu5/n0+/gw/36+nyKnp6fT6/SF9xmXAtU2oVL4mN9kCv3vix9z/GE8ruJZKBcTnwqVtg0olXq0CTJJ2QY0BWQDqJla3Ab0Ss0CJFEVABAStoBCjDJ06sECVIYEAVINoEdqAR6p2QxdSSMOlYqtQ2/EFQCYqiWth4wIEChZWWMIFAAJ0UIUnwKREKaSLECoMAAEErGASgzs2pSjdZ/qUADrpoV1hQhQVwWI5SBtybnFgZ37MiyEurnZFpVIgjIUr9KUE9hVOrEtteomoA5dj9R9hoz8XXxDKIcOxoYawblPVWIE6H6QCW6IlZtXpa54DCQHYBLE+nqClV0L6ursSagOFTVp/GJXrVwGpW5+lE3DDeiqspfsAQHZNX7hoA0BevTbgBqXaX21q45P4O8c/KVVFAA46K3o/K33XgWyJso2PrZFtn+bj4KdARHfQIGi7eiYlrGzEe+sHXWaw++78zdIVytmZ16hBK509uOFYX3LcgdcDw83DKFg7aNkQI+pEm5g41st8jIUPuMj0qZSEhffgfRRlmXlulFBMb+7sf0/Xh8+18PH8XCYt8v1/36d1FfzKsp3fwA=);lineShape=1;strokeColor=default;" vertex="1" parent="1">
          <mxGeometry x="165.24741120768385" y="588.2484759310937" width="15.13931626859403" height="16.199827206799" as="geometry" />
        </mxCell>
        <mxCell id="TqZeZgLtAaNlRR_1fSZo-11" value="" style="shape=stencil(nVfZctswDPwavWJAgudzmv5HZuLUnrp2xnGvvy9UDVURsjZx33TskiAWFwd5eNs/ve4Gz2/Xy/nr7ufh+bof5NPg/eG0310OV30a5HGQh5fzZfflcv5+ep7eX59G5Pj07fxjXOHXxKuBShlZnn9PXyI5+fvh84Q/Hk49vkqHd45CAgRdL3YEz1QRIZFzPaGQK4CQSXqCBMqIUCj2Zw6OEm8THDMx94xMIYMtKnHt3RopI0Kwh0jc/HCTUOKK4CkDv2ahGHpChMrFTLGXOjMlv00ITMEQEpRaY632bi0CTXKBuFeuqjJxm5BaIMz4Qh6EtxrUy6ZCOrC+ZkO0eCSCWHsWoXXbRS0wFxuUADxkRVa8r9t4VbRaBwUQdhqUqcfP2beBN4mj6c0gN5m87/FaoIBDmYpZX2Duu9V5fZNww/82gDyMUGkBv8ALSjJy3uITwKcVXkhATiYq2frTA//k9nfGa5EA8Zbb7gt9E1hfC4KxJzcLN/DWngLxcWVPhaU9tNaywFewvr9RICooKG7l/0oR5ksN9rwZ+J9J2PozwXznvmuoXgHiTTPWePAwH+Mq3hyIz3vxjin3AmjLqIAwKrZqSgl4VHL7PffJSoJCLtiaop3YgZjTNmqKig4HyKSiUdSrEB2s0kUnnL4MRYZeKtnWlSAwb0qyiSOpKbM1r5hM9poJyKTQCskHB0clmGnindF0JBgvwdlXj+D6DYQKPrIZoLSboPW12JkDUEYaZGsPt2F+KypM856rx218tcUUzyo6i0V3D95ZhbE9dXbfx86rrTHJHf5cz+BYL8Ube3A8/Mdd6x28Pvy72L0cjsfpXrj8by+C+mm6RMrjHw==);lineShape=1;strokeColor=default;" vertex="1" parent="1">
          <mxGeometry x="362.6426588641684" y="505.79028497778506" width="44.88299552106719" height="43.11278399601326" as="geometry" />
        </mxCell>
        <mxCell id="TqZeZgLtAaNlRR_1fSZo-12" value="" style="shape=stencil(lVfLbhsxDPyavRKUqOc5Tf8jQJzaqGsHjvv6+9JdrLukslPkJq+HlDgkh9IkD2/7p9fdFPntejl/3f08PF/3k3yaYjyc9rvL4aqrSR4neXg5X3ZfLufvp+f59+vTDXlbfTv/uHn4NduVSLnfrCL/nr8wpfL3w+cZfzycVvgqJGLwQi1t45tQrQZfqAL/XSgFg++U6zY+MBOzMQiZUgc7FCrNGMS07LkVQos25EIJxFwyBRtzDtRB0CkTW1JLpd62DWKlVoxBC9RA0KEQ2xh6pBABSxSSxTeYt0bR4TsJ4oh693jkP1MOHo8YEup5wIM6ipTacB4BhFIc/Atv47WreOAT4nnAM8gXU3D8VBJQ1LzsfsdrW2QUbxWPD8C/ENsW6BnmN1Fhjy/Av+6eB/+Az0o5+/Mzanoq1eMz8K/Zb57/AOq/L9Gt8EhHu5ddrYeMdNfLutZnQLq+KNoKX2D/ej3R/gL9ohJr+VwJ90ZDjg2MCApUhgOhQcZUBkI7bBhuHh9Bw/BSXqsEo4SpQAwF2uD5P4avQ7wMB0DQirMjpmJF1KHoJFHnYAU75EzNGqS+jOatu0exBpIogiO15FVLdQmpdLuf+F6mAsdGrRRtWYRAAgZxURmxBm1RsvdJUqGzwpigLiqpAz6A8+Tk0ywwB1n5YIcPgFHFV+s/wtvZzb8VIr3YoPMkL1wBzj3lJ9oMMzWEL/5iw/CymKvvS4ZzIDfPD5bFMgx6hnOsBH+f5uVy+j7+g++B/+N18e/x8XI4Hue3y/p//1jRT/NDRx7/AA==);lineShape=1;strokeColor=default;" vertex="1" parent="1">
          <mxGeometry x="360.1143966956515" y="568.4195089529851" width="28.4543862102189" height="62.36480259333371" as="geometry" />
        </mxCell>
        <mxCell id="TqZeZgLtAaNlRR_1fSZo-13" value="" style="shape=stencil(lVfLctswDPwaXTEkwOc5Tf8jM3FqT10747ivvy9UDRURkjaTmyxzBS4WWJCDPLwdn14PA7u3++36/fD79Hw/DvJlYD5djofb6a5PgzwO8vByvR2+3a4/L8/T79enceX49OP6a/zCnwknnqobUez+Tm9qpBz/v/k6Ac6nyxLgyOcOUBJJ2QdwJpYOkAuVDABMJfUA1z6xCfCZSs8hOQoIwFRrBwiV2O8DdMOxWy+ZIkhSJOkpc6IK1jPFfr1SCiCnjlxP2HvyYP/eUe5TOn9hTzMjQaQCvh+EhPsNKSXeByRPqVfAV0oBKOBIok2pB4CaKPU51VKPCFCI+6QKE1cAqHZLIk33PUANPSBQBJ0wAvq0SoStowDu06qF6oHQStqbCPoGcUhN1wWggNKugVLvF1LJg9qu3PxnCUAcHNVit5QAoFTbbpol5HmlUOzbQebq2gMYk1ThBEcQI1wglyAHNjqobaJqdc2xFv2APEl14BUAcVCl/QrgAQetJRdWEVBpqEwr0sjHtB+cWAAkXZvPLXRANuPdyotV6oB8praeXxRTxj1qqy9DN9Y0OVNM2hCItRan4VDhPKmyKtfaKn4bMHvv0jZQhM8CciRnlBM4UWJsI3aeKJkSiKC61l4H9tArdaSFXmkfiVExiR0QpVnb9nqdBmwDZARYzTgOjdT2QUDntPHWuVa2AclGCAmexd5bfj5qzOW7DUi2RVOGJhC8db6sQwwBQtvxLEOEx0OlaGxmnHooggJ64cZTN9AhxFaaMyBBu1cOJkvqChWcyPQIZ+a0+k5GEXQ+9O2gzhaAywTXTGgBKIC0dnztAQu33UZkO7M+ChE39oTcW8cBh1WaQMupC3m3EgLZDJOspUYRPn2F+xigD+83xpfT+TxdOJf/2xumvppup/L4Dw==);lineShape=1;strokeColor=default;" vertex="1" parent="1">
          <mxGeometry x="326.86107746806374" y="441.51642323599106" width="26.022721452545966" height="38.33497360326078" as="geometry" />
        </mxCell>
        <mxCell id="TqZeZgLtAaNlRR_1fSZo-14" value="" style="shape=stencil(lVfLctswDPwaXTEgwec5Tf8jM3FqTV0747ht8veFqkg2IWlb3yQKKwLgYgF28vC2f3rddZ7fLufT993v/vmy7+RL531/3O/O/UWfOnns5OHldN59O59+Hp/H99enwXJ4+nH6NfzhfcTVQDkNKM8fnyuVJP5d+ToCDv3xBlAqRW4BkSQDgKeaWwCTc9uAHCm6BlCEomwDUiZud8iBStoGxELFN4CkMYAdItsYYqQMgg7qcWwAIZEDAMmUawOQQrEAgKdQWoCHB+czpTatPlENAKAH18agKwEcnCvk2xh0RSoAhIkIMwAfnGPKBuCJPeAS1da+QofYpkjIgb/z9HVOEEVozsZ5KoASTMLG3AOOLiiqwQD+OKpizD3iJzk25gy4E0iCNQeZiVN93zgDiJZscTEslUy+mERC/aEUjXkGoaq5JQGimDrTJlImVmyEGrwxRxRTGTOiQAVkJkyaNKsUPFVvOSNUUXkvJI0yJHBJxvyzADbMfTB5x39nNuYMlcC1zjgKIDMLXdJggBa7ia9Xc8QZjWxRfMBclqXNIJGRnK0mJHrJ5p1hZha9WXUKCvZd5m5m4Nz6KSPV0y5sWhTD6cVVK3y6pQCPhiJpK1b3rLgvm0Y+6BNgsvZ5bxQnTpW2NVuYExY3HeK6LGgfM6WYocKGYvU+zKxa55x63LoUA2xXSazMJhUvJPraXNsqyCqdaE5lSw2dXBlNwotGUQoFsIPO2mY+qhoVOGkdxc0kXOduswUwQSsAzXiOF7pYC5TddUQCQ9uKUxVOAyth14lfWwCOFgDzVGzNXZ1cB+SVGCoKWmuurYibxK0jtNUvgoBbRCp8VxDRCse/0nTv5fA/APpwvYu+9IfDeJW9/W7vrro03nvl8Q8=);lineShape=1;strokeColor=default;" vertex="1" parent="1">
          <mxGeometry x="0.0054853699055001925" y="444.49853441473545" width="49.41052250673306" height="93.92763657642911" as="geometry" />
        </mxCell>
        <mxCell id="TqZeZgLtAaNlRR_1fSZo-15" value="" style="shape=stencil(lVfZctswDPwavWJIgudzmv5HZuLUmrp2xnGvvy9Ula4A2avxmyzvCsDiIDjw08f+5X03BPdxOZ++7n6Or5f9wJ+GEMbjfnceL/I08PPAT2+n8+7L+fT9+Dr/fn+ZkNPTt9OP6Qu/Zp4j5yZScL/nFy1TDn/ffJ7xh/Go8NErfM3kPMIX/f3CVNN9vKfICp8axXYfH4iDwscIv88UssKzh/hIQccrHgbgj+B1vJ6JGeGtPj0ht+XxXe2rP+QKkMdTKwrv4Pe5ktP6+y7wTXzK5KPWH+JLsP6XbvAmviXK2v9JgQoIhWKyhAQS1mrP/5UQKAKJWqOiQ5YURxCzd6sm85ESKDoxkXVVe9EhwyCy8UnaGFko5E3UpXf2vUSYRhNCRS5J3UdLaMglb0eLEDKo7SqJYEtwwKVa+yhZqOSRBQnR2Tx4UBtCKEZWpoZdsioFqjjoZFTyW7J6tgQ0wSRxdgQ4bCGRCysCspCpNusSo6aWxK1UQnloa5UYloYQWrUtikpDCHXVooxdsrJmYtyi2agkTYtkTb3UFoSCLMTVXCqwWltYxSAdgqbGo4Qs03g1XP91yO0DiHuaFsWHGohTH1vXDYYyyNt0ous0FArAoWlCVPN9VBdSZ8w2YrTxyN9JOyRndEIehS75deeRtGCC0xZigkvedMTqZpCtLWNC0ISttdDbht7YO6epqC1sLLZCMKN7WiXAajLFoEtVxlRAmXZ9TVgQKhp79myQGYIWjdpXwQW+AodEEDPzHN4Ok414i8B2t9rwKFBaRQBXK0ruEUWdjXgjZc4Ol42aePw2tYWXh/9Xt7fxcJhvfsv/7VVPXs3XRH7+Aw==);lineShape=1;strokeColor=default;" vertex="1" parent="1">
          <mxGeometry x="-1.6637633384264063" y="436.84349451633364" width="27.917418150113917" height="48.80814736826255" as="geometry" />
        </mxCell>
        <mxCell id="TqZeZgLtAaNlRR_1fSZo-17" value="" style="shape=stencil(rVfbbtswDP0avxKUqOtz1/1HgaZLsCwp0nSXvx81T15EO2cYsDfHOUe8iDykJ3l42z+97ibPb9fL+fPu2+H5up/kw+T94bTfXQ5XfZrkcZKHl/Nl9+lyfj89z79fnxqyPX05f20nfJ95tVLJjeX5x/wmUHW/Xnyc8cfD6RafKcUB7zwlDwiJnCEUygkQIrkyELxQCoAgVOtAEEdcIcGPLkkhh2LwlEeXQsIx+P53J8RIkgHBURotJCEGFkqmMMaQMmVgIVeKY5ayZineJ6RiLWS9GeBS9FTcQCjco9okiJ5nCJkYEFrljC7pVQqIwVMdr6GVO8SbwnDMxAw8ohhWBkAE3JvrBh/B+UyBR3yhCvFcLd6B3lmiW/CZBLQ/99MWfKIAWo17dAs+wsbRkgwW72H+k4k3wPx7Cm6FB50v5Fb+syB8XuFRfoIVxyaX4L4CSbX4CvG2fnKXsnv+jDKk9RNRC1ud03r24H5ldX6lDPz3PXs3+IoUwgp1w4OGd1aBFJ8AXus5WjyaHNov2eYzwP5a92OE/cXmfDyYmMTcV+zD8w6+rPoRzTFHwfgTugT/H3wmPxJK6SW1XXC6O4wZLa7f4fYUc7ZEc+gisz0nVQHN6C7d5vYkzlakddZnICplNSdjIQFdowSTVo0KjTElxNWCg+5ZCb9lcyGoFIPCLon8aEEydkkLfwzaq7QgC9VqqVZXAWmt3JO4THttHrQ3OrsrO4bdqdtJktElymi5li5Wi4FucRuv8i4Gj6ZHG15jxOo/XsXNvsWw2VR8ojd4dMdt2WCLB72p4snWH7StKD6LwaPp14ZXNfkMQN3b8Br997BE2zAa8y943+XVPAg4of/6NfdXvD78+XR8ORyP85fn7f/2U1NfzZ+p8vgT);lineShape=1;strokeColor=default;" vertex="1" parent="1">
          <mxGeometry x="-7.8500682671701725" y="501.8918123172622" width="64.96095071456807" height="55.32952327388932" as="geometry" />
        </mxCell>
        <mxCell id="TqZeZgLtAaNlRR_1fSZo-18" value="" style="shape=stencil(lVfLbttADPwaXQlyuc9zmv5HgDi1UTcOHPf196UqSNVS1hS5KQrHWpIzQ+6gD+/Hp7fDEPj9dr18Pfw8Pd+Og34aQji9Hg/X082eBn0c9OHlcj18uV6+vz5Pf789jZHj07fLj/EXfk24RklGUODf0wumEP+++DyFn0+vq3BppNrFB0ogXpVC6+ITpbIfHwul2sU34rwfnyNJ6uJFKbZ9QAnUSg/IJLoPqIU09wCrAYMSMRNzXyNLIuwjWqPaFzUyBiSKfRJJKQsAWFd7QK7EoA81Ue37VoUYNLoGyn0j7JAVlMkA3DOvlZlb9wFMpT9Sq5QBoDQS9wVjewKAQhI9oCEyJRLeAEDjislhA0BJF5lTXCUd0JF41tcCyNQANQwgwTcOHolJHUCpoKSFxB0pQJMxjaZeck2gC5ToNToSHlUpkxYPQIorlbRtvoAExJtOC/yC6SsHXyUBOZiAYvN9yIDeBiibTgdQVgOoyyFTRSYg8++t2YolWjYShY0rVIMHNGAzJtHSD5SVP+9ptG5to0K6ep8xY0IApurKVCiiI/HMhLW5AvaNADdGIwVkfR8GRO8CJpGGRG2TvXeynGCVTEGt/0ISUjyCWj+CtMEcbMg5japNMez3tR8QytArc/FlDRUeKVUqbr9K0FwT+xEUdO7M/Q1L/LIRzJhA0qH6ESTGVjBRJBFvdjJkG2kuyRIvFAEz1DulMBxxwbfZ4hk0YanHsvvMxLobzjMrFyVQBq662Q4zHCTsDxNn89gJz47S84K/k6pb/wO0X5sgbhemABoV/dbJ8LKQ/Gq+cPu+GqkkF458/YM3nf+G28O/S9XL6Xye7mTr//tLmL2aLnD6+Ac=);lineShape=1;strokeColor=default;" vertex="1" parent="1">
          <mxGeometry x="188.83627023184" y="439.83350447120074" width="29.316147323905398" height="36.983357047765935" as="geometry" />
        </mxCell>
        <mxCell id="TqZeZgLtAaNlRR_1fSZo-19" value="" style="shape=stencil(lVfZctswDPwavWJI8AKf0/Q/MhOn9tS1M47T4+8LVZUsgtZm8iaTWNI4dgEO4eFt//S6G9i9XS/n77tfh+frfghfBubDab+7HK76NYTHITy8nC+7b5fz++l5+v36NFqOXz/OP8cTfk84z1TciGL3Z1oJxOXfwtfJ/ng4re0zldrYe0fRbQPYUQotQMhnAAhUuQFwphABIFPMrQuBctoGBEeu9TkmygwATLF1OgkldIP6EBtATiQgSiFRbAFF84BuEOLWaYmU6jYg8by9ADSssg3IeQ7iCpABQDxlbwEFJK52mVYA8qFqEIMF/F+5DyhzmhZAoQzyUIVqWxoiJKA0aqXS3lAdBVDe3nXVV5kcQOgVufVaAwfjKpRLC0jEyIlCbG7I0Ak9z1BOj3AoEYFStACkAtV3PnxQTG4O4spp8aBcNbEGECkC6VMAd4kT4IMsQrcAPHnggwJKGyWplJAPlaSN0ngnyrS3OqOE8DhxLJ0KIICWWqcCGZFaK8fbv8QIoNrbcTSAxCmBTAsa44ZJXVutHOMGpK8u560o6pEPlZyRjUgF8aHM2ys+QMbpdkcgQVGK5NtMjxRFTn8WIDzX5gqAyjuXjtMCa2lsckZmFn2+30br3JZv48yiz/enDe0QnfR5BAhdp8bSpxOTtIQoCTYtX2e+LNOGwL/kC4kZTxysPp36TB9NAcbVRzsmRiUEmiu9LVed0hLQytJNiQzLO1Jus+DxRKYBMao0Tzcb5kbqCxzfuhkgQUFytj9HOHM7OyYFOGB4Km3oPQkgWbB67WZGbAQ+JmMegKuLqt3MER11nIvWHKmibU748aJvm8wmNA6ERqvYUJfnsr5v/9nX14f2+nF76r0cjsfppbjet09DXZqeleHxLw==);lineShape=1;strokeColor=default;" vertex="1" parent="1">
          <mxGeometry x="129.8427594319187" y="505.853357578314" width="32.17238612264987" height="36.14321160097052" as="geometry" />
        </mxCell>
      </root>
    </mxGraphModel>
  </diagram>
</mxfile>
